<?xml version="1.0" standalone="no"?>
<!DOCTYPE svg PUBLIC "-//W3C//DTD SVG 20010904//EN"
 "http://www.w3.org/TR/2001/REC-SVG-20010904/DTD/svg10.dtd">
<svg version="1.0" xmlns="http://www.w3.org/2000/svg"
 width="1219.000000pt" height="1280.000000pt" viewBox="0 0 1219.000000 1280.000000"
 preserveAspectRatio="xMidYMid meet">
<metadata>
Created by potrace 1.15, written by Peter Selinger 2001-2017
</metadata>
<g transform="translate(0.000000,1280.000000) scale(0.100000,-0.100000)"
fill="#000000" stroke="none">
<path d="M5821 12050 c-101 -233 -104 -244 -133 -402 -18 -105 -28 -187 -26
-230 2 -38 1 -68 -2 -68 -3 0 -111 -13 -240 -29 -129 -16 -236 -29 -237 -27
-1 1 -9 37 -18 81 -9 44 -26 96 -37 115 -11 19 -40 79 -64 133 -36 82 -122
215 -199 309 -7 9 -46 60 -86 113 -65 86 -75 95 -98 90 -14 -3 -91 -22 -171
-43 l-145 -37 -37 -250 c-31 -208 -36 -266 -31 -344 l6 -93 -24 12 c-13 7 -71
40 -129 73 -164 93 -179 101 -150 80 13 -10 32 -25 41 -35 10 -9 21 -13 25
-10 4 4 4 2 0 -5 -5 -9 -16 -6 -44 9 -70 40 -17 1 135 -100 l152 -101 6 -48
c3 -27 15 -72 26 -102 11 -30 18 -56 16 -58 -7 -6 -450 -183 -453 -180 -2 1
-12 24 -24 51 -11 27 -70 111 -131 187 -104 131 -119 145 -307 290 -108 84
-201 155 -207 159 -14 11 -299 -153 -303 -175 -2 -9 8 -124 22 -254 l27 -236
61 -170 c34 -93 76 -193 94 -221 l32 -50 -189 -142 c-104 -78 -193 -143 -197
-144 -5 -2 -26 17 -46 42 -21 24 -100 89 -176 145 -130 95 -151 106 -380 204
l-242 104 -124 -124 -124 -124 98 -245 c54 -135 113 -267 130 -294 18 -28 32
-54 32 -59 0 -5 21 -47 46 -93 38 -70 48 -82 58 -70 9 13 19 7 64 -34 l53 -49
-146 -186 c-81 -101 -150 -187 -154 -190 -5 -2 -27 9 -51 26 -23 17 -115 59
-205 94 -164 64 -164 64 -416 100 -139 20 -258 34 -264 31 -11 -4 -27 -29
-141 -222 l-42 -70 59 -79 c33 -43 59 -87 59 -96 0 -22 78 -155 148 -254 64
-91 189 -233 240 -273 l40 -32 15 42 c16 48 14 47 79 19 l46 -20 -95 -223
c-52 -123 -96 -224 -98 -226 -1 -1 -27 6 -56 17 -33 13 -121 28 -229 39 l-175
19 -253 -31 c-191 -23 -255 -35 -262 -46 -17 -32 -91 -323 -83 -330 4 -3 30
-24 56 -45 l48 -38 -7 -57 -6 -57 98 -80 c220 -176 320 -246 453 -313 91 -45
88 -47 98 58 l6 63 41 -7 c23 -3 42 -7 43 -8 1 -1 -13 -107 -32 -236 -19 -129
-35 -239 -35 -244 0 -5 -25 -6 -55 -2 -37 4 -110 -2 -227 -19 -172 -26 -174
-27 -415 -123 -186 -75 -243 -102 -247 -117 -3 -11 -6 -90 -6 -176 l0 -157 40
-16 c36 -14 40 -19 41 -53 0 -21 6 -60 12 -88 l12 -49 105 -48 c180 -81 351
-146 455 -172 123 -31 234 -46 242 -33 3 5 2 51 -1 103 -7 90 -6 94 13 94 12
0 21 -3 21 -7 1 -5 13 -111 29 -238 18 -145 25 -232 19 -236 -6 -4 -31 -9 -57
-12 -26 -3 -116 -36 -201 -73 -147 -64 -166 -76 -369 -226 -210 -158 -213
-160 -208 -191 4 -18 22 -93 42 -167 25 -96 41 -139 55 -149 11 -7 20 -23 20
-36 0 -12 14 -49 30 -82 l30 -60 73 -21 c271 -78 599 -94 812 -38 l50 13 -2
44 c-2 38 7 21 62 -115 36 -88 64 -161 62 -162 -1 -2 -24 -12 -51 -24 -27 -11
-111 -70 -188 -131 -132 -106 -146 -120 -290 -308 -83 -108 -155 -200 -159
-206 -4 -5 23 -64 60 -131 46 -81 70 -136 74 -169 8 -57 41 -116 91 -165 l36
-34 133 1 c298 4 624 88 790 205 l27 19 27 -32 c26 -31 28 -31 33 -10 4 19 12
12 58 -49 29 -39 55 -77 58 -84 3 -8 -14 -31 -39 -52 -24 -22 -90 -100 -145
-174 -96 -129 -104 -145 -201 -372 -56 -130 -101 -241 -101 -245 0 -5 32 -40
70 -78 66 -65 70 -72 70 -115 1 -83 64 -177 154 -225 32 -18 41 -18 98 -6 162
33 387 128 541 227 86 56 223 168 238 195 5 10 14 19 20 19 5 0 40 -20 76 -45
37 -24 70 -42 75 -39 4 3 8 23 8 45 0 21 2 39 5 39 8 0 109 -81 113 -89 1 -4
-11 -26 -28 -49 -16 -23 -59 -114 -94 -203 l-65 -162 -36 -260 c-32 -228 -34
-263 -22 -272 9 -5 36 -22 61 -37 37 -22 46 -33 46 -56 0 -49 28 -125 60 -164
30 -36 126 -90 181 -102 21 -4 50 8 131 57 143 86 254 175 373 298 83 86 213
259 227 301 4 12 86 -11 187 -51 29 -12 56 -20 58 -17 3 2 7 32 10 65 3 34 10
61 15 61 7 0 66 -27 75 -34 2 -1 -6 -25 -17 -53 -19 -50 -50 -296 -50 -396 0
-43 40 -402 56 -494 4 -26 11 -34 37 -41 28 -7 35 -16 53 -69 52 -149 135
-213 279 -213 l53 0 103 108 c204 213 339 444 399 681 l12 44 97 -6 c91 -6
181 -20 224 -33 17 -5 18 1 15 85 -3 90 -3 91 21 91 23 0 24 -2 18 -58 -4 -38
2 -112 20 -227 25 -166 28 -175 121 -408 101 -254 157 -356 234 -421 69 -60
160 -78 269 -55 l51 11 35 77 c157 342 223 570 223 771 l0 98 93 18 c116 24
298 26 341 4 23 -12 39 -35 68 -102 20 -48 53 -110 73 -139 19 -28 35 -59 35
-68 0 -23 137 -247 200 -326 95 -120 200 -174 315 -162 66 7 164 52 174 81 14
35 61 383 67 496 7 116 -7 272 -32 365 -9 33 -18 69 -21 80 -4 17 11 28 89 67
289 143 429 113 541 -116 32 -65 51 -88 164 -192 70 -64 154 -135 187 -156
145 -93 270 -87 388 20 l41 37 -6 175 c-8 267 -62 491 -167 687 l-50 93 46 42
c81 75 158 130 224 162 130 62 238 33 349 -92 59 -67 127 -112 291 -193 121
-60 187 -79 270 -79 79 0 120 12 177 53 43 31 113 121 113 146 0 23 -130 341
-183 446 -27 55 -64 134 -82 176 -17 42 -64 122 -104 178 l-72 102 73 96 c47
61 94 111 131 137 51 36 65 41 127 44 61 4 77 1 136 -27 36 -17 82 -44 102
-59 29 -22 75 -37 217 -71 292 -69 413 -58 505 46 24 27 47 70 60 109 l22 65
-56 94 c-46 76 -55 99 -47 113 9 16 -16 54 -147 229 -147 197 -166 218 -287
321 -72 60 -154 121 -183 136 -52 26 -60 38 -43 65 7 11 22 4 73 -37 l64 -51
38 77 c52 105 87 146 152 178 49 24 63 26 127 21 41 -3 103 -17 144 -32 l71
-27 184 11 c205 11 283 29 364 84 83 55 121 128 125 242 l3 60 -62 50 c-66 53
-65 53 -46 135 5 23 -12 40 -198 186 -197 157 -208 163 -368 237 -91 41 -187
79 -214 83 l-48 7 5 44 c2 24 7 47 11 50 3 3 26 -2 52 -12 25 -9 49 -13 53 -9
4 5 13 27 19 49 19 68 66 129 124 161 50 27 60 29 178 30 112 2 138 5 247 38
236 70 313 106 383 177 64 66 83 151 58 259 -11 47 -17 55 -65 86 l-53 34 0
84 0 84 -242 105 c-240 104 -245 105 -400 131 -86 14 -188 26 -226 26 l-69 0
-7 46 c-11 81 -10 84 27 84 33 0 34 2 50 60 30 106 109 166 255 194 61 12 96
27 201 91 230 139 324 226 352 329 24 87 -26 237 -87 265 -29 12 -33 21 -58
120 l-28 107 -261 36 -262 37 -165 -15 c-96 -9 -190 -23 -224 -34 -33 -11 -60
-19 -62 -17 -14 15 -52 133 -45 141 4 6 11 33 15 60 12 98 77 170 199 226 53
24 83 49 174 144 138 145 189 210 219 283 42 103 28 199 -44 292 -16 20 -61
93 -101 163 -63 110 -76 127 -95 123 -11 -2 -124 -16 -251 -30 -230 -26 -230
-26 -400 -87 -100 -36 -189 -75 -217 -94 l-48 -34 -71 95 c-64 85 -71 98 -65
127 12 63 48 118 120 185 62 58 84 89 149 208 91 167 126 251 134 326 9 87 -3
143 -43 195 -28 36 -34 52 -29 72 5 22 -8 39 -112 144 -65 65 -122 118 -128
118 -5 0 -116 -42 -245 -93 -222 -88 -243 -99 -377 -190 -78 -54 -160 -118
-181 -143 l-40 -45 -174 137 c-95 75 -181 142 -192 149 -10 8 -15 18 -12 24 4
6 32 -10 68 -39 34 -28 65 -50 69 -50 3 0 14 20 24 45 9 25 35 73 58 107 34
50 47 87 80 217 67 269 62 404 -19 499 -34 41 -35 42 -25 94 5 29 9 54 8 54
-11 8 -280 166 -291 170 -8 3 -98 -57 -222 -148 -196 -145 -214 -160 -317
-283 -60 -71 -122 -156 -138 -187 l-29 -58 -58 26 c-31 14 -131 57 -222 96
-91 39 -166 71 -168 73 -2 2 14 46 24 63 0 1 22 -10 48 -24 26 -14 48 -25 50
-23 2 2 13 35 26 72 19 59 22 87 21 215 -3 234 -27 346 -97 438 -30 39 -36 57
-47 137 l-12 91 -160 48 c-88 26 -165 47 -172 45 -6 -1 -82 -92 -169 -202
-151 -191 -161 -207 -231 -359 -41 -88 -79 -182 -85 -210 -5 -28 -13 -54 -17
-57 -5 -6 -472 57 -476 64 0 1 1 28 3 60 3 45 7 57 18 53 8 -3 21 -9 29 -12
12 -5 15 4 15 53 0 100 -105 395 -174 488 -13 17 -47 89 -77 161 l-53 132 -60
6 c-32 3 -111 6 -175 6 l-116 0 -104 -240z m689 -2235 c277 -28 574 -91 809
-170 l104 -35 -5 85 c-3 47 -3 85 1 85 23 -1 35 -34 62 -176 l30 -159 -43
-240 -43 -240 -195 -330 c-108 -181 -263 -444 -345 -583 l-150 -253 -188 -151
c-104 -84 -200 -168 -214 -187 l-25 -36 7 30 c4 17 33 156 66 309 57 270 72
359 43 266 l-13 -45 4 45 c6 64 1 47 -110 -355 -53 -192 -97 -350 -98 -351 -1
-1 -27 2 -57 7 -30 4 -84 8 -119 8 -63 1 -67 3 -275 122 -236 136 -239 138
-210 112 12 -10 20 -26 19 -35 -2 -13 38 -44 147 -114 l150 -98 -89 -22 c-128
-31 -216 -69 -345 -145 l-36 -22 -97 56 -96 57 -245 45 -245 44 -582 345 -583
345 -114 143 -115 143 1 76 c4 277 215 523 675 787 58 34 274 144 480 245 378
187 487 231 719 291 184 48 442 91 655 109 118 10 534 5 665 -8z m1557 -367
c29 -18 53 -37 53 -43 0 -5 -29 -50 -64 -98 -129 -180 -292 -316 -344 -288
-26 14 -35 57 -27 125 l7 54 75 38 c88 44 190 139 219 201 10 23 21 43 24 43
2 0 28 -14 57 -32z m646 -626 c187 -168 395 -408 537 -619 30 -45 62 -83 70
-86 28 -8 182 -336 271 -576 296 -795 296 -1745 0 -2556 -27 -75 -51 -139 -53
-140 -2 -2 -77 -17 -166 -34 l-164 -30 -238 44 -238 43 -582 345 -582 344
-154 191 c-146 181 -158 193 -239 242 -76 46 -85 55 -85 81 0 36 10 37 43 3
29 -29 52 -23 43 11 -3 12 -13 118 -21 235 -17 233 -33 328 -70 408 -22 48
-23 57 -11 80 20 40 63 177 81 257 9 39 20 84 25 100 5 17 17 64 26 105 39
174 94 300 180 410 23 30 91 138 149 240 216 374 285 481 400 619 129 155 284
272 448 339 61 25 186 62 199 59 4 -1 63 -53 131 -115z m-5514 -722 c48 -57
81 -124 74 -150 -6 -21 -44 -40 -82 -40 -71 0 -235 53 -376 122 -97 48 -100
50 -86 76 11 21 11 21 59 -4 26 -13 70 -27 97 -30 47 -6 51 -4 67 23 35 57 31
55 82 32 l49 -21 25 25 c14 14 31 23 37 20 7 -2 32 -26 54 -53z m70 -619 c126
-25 165 -37 205 -63 128 -80 243 -148 420 -245 260 -144 363 -205 483 -285
168 -112 300 -225 330 -283 17 -32 161 -185 174 -185 5 0 11 22 15 50 l6 49
29 -14 c15 -8 30 -19 34 -24 3 -6 0 -59 -7 -120 -14 -132 -2 -258 38 -396 27
-95 95 -246 136 -305 l25 -34 -58 -96 -58 -96 -44 -245 -45 -245 -345 -583
-345 -583 -189 -151 -189 -152 -151 -49 -151 -50 -79 71 c-392 355 -721 802
-872 1187 -319 813 -365 1671 -131 2470 64 217 120 359 150 373 110 52 367 54
619 4z m3525 -14 c26 -19 31 -85 11 -174 -26 -117 -21 -113 -123 -113 -75 0
-94 4 -139 28 -29 15 -51 32 -49 37 2 6 10 8 17 6 8 -2 37 -6 64 -8 97 -8 165
63 165 173 0 47 6 60 31 63 3 1 13 -5 23 -12z m-50 -359 c-9 -33 -12 -33 -35
-12 -19 17 -19 19 -2 25 35 14 45 10 37 -13z m-1578 -124 c52 -21 51 -20 21
-52 -24 -25 -120 -177 -130 -205 -5 -16 -63 29 -139 106 -58 60 -70 83 -26 53
56 -39 144 -5 186 72 26 47 33 49 88 26z m1099 -440 c66 -17 113 -41 126 -64
5 -8 27 -53 49 -100 21 -47 37 -73 34 -57 -9 40 4 33 22 -13 9 -23 18 -39 20
-37 2 2 -10 39 -27 82 -17 44 -32 98 -35 120 -3 22 -7 50 -10 63 -8 41 6 23
41 -49 50 -104 60 -164 47 -281 -24 -219 -159 -378 -372 -437 -41 -12 -98 -21
-127 -21 -116 0 -242 46 -330 121 -58 49 -107 106 -83 97 13 -5 15 12 16 106
1 126 19 189 78 279 63 94 179 169 311 200 46 11 185 6 240 -9z m973 -990 c27
-90 -79 -104 -275 -39 -62 21 -113 41 -113 44 0 12 46 52 52 46 3 -3 37 -6 76
-6 74 0 144 22 171 54 12 15 16 13 46 -24 18 -23 37 -57 43 -75z m-1668 -275
c0 -17 -154 -171 -199 -201 -101 -64 -148 -18 -125 123 6 32 12 38 68 63 35
15 77 42 95 60 l32 33 65 -34 c35 -19 64 -39 64 -44z m1365 -180 c55 -15 133
-40 173 -54 107 -37 229 -65 290 -65 47 0 61 -6 125 -48 90 -61 160 -101 468
-273 371 -206 504 -295 687 -459 55 -50 102 -90 105 -90 2 0 2 12 0 28 l-5 27
19 -23 c19 -23 113 -294 113 -325 0 -22 -346 -371 -460 -464 -586 -477 -1229
-752 -1984 -849 -176 -22 -510 -29 -705 -15 -191 14 -247 28 -126 32 69 2 73
3 30 8 l-50 5 55 7 c30 3 -30 4 -135 1 l-190 -4 -160 37 c-88 20 -221 57 -296
81 l-135 44 73 342 c72 341 84 410 58 333 l-14 -40 4 45 c8 71 -5 30 -100
-320 -49 -179 -90 -327 -91 -328 -1 -2 -18 2 -38 9 -27 10 -37 20 -41 43 -4
17 -9 39 -12 49 -4 17 -2 17 31 3 l36 -15 0 54 c0 266 116 572 377 990 55 88
125 207 157 264 70 127 160 264 233 353 78 96 237 245 320 300 46 31 74 58 81
76 14 41 59 90 106 115 38 20 61 22 291 28 295 8 324 14 428 93 25 19 56 36
69 39 40 7 109 -4 213 -34z m1978 -694 c36 -27 38 -27 57 -10 22 20 89 22 134
5 50 -19 65 -13 98 40 17 28 35 50 39 50 16 0 99 -44 99 -53 0 -11 -40 -80
-107 -185 l-53 -83 -28 15 c-88 46 -311 245 -341 306 -9 17 -1 12 26 -16 21
-23 55 -54 76 -69z m-4553 -910 c45 -55 -3 -257 -112 -468 l-40 -77 -67 36
c-93 51 -201 122 -201 132 0 4 6 17 14 27 11 15 28 19 82 20 162 4 274 123
274 292 0 45 3 53 19 53 10 0 24 -7 31 -15z m5545 -575 c3 -5 1 -10 -4 -10 -6
0 -11 5 -11 10 0 6 2 10 4 10 3 0 8 -4 11 -10z"/>
<path d="M5520 7551 c24 -20 40 -26 40 -16 0 2 -15 12 -32 20 l-33 16 25 -20z"/>
<path d="M7278 7203 c7 -3 16 -2 19 1 4 3 -2 6 -13 5 -11 0 -14 -3 -6 -6z"/>
<path d="M7200 7189 c0 -5 11 -9 25 -9 14 0 25 2 25 4 0 2 -11 6 -25 8 -14 3
-25 1 -25 -3z"/>
<path d="M4901 3434 c0 -11 3 -14 6 -6 3 7 2 16 -1 19 -3 4 -6 -2 -5 -13z"/>
<path d="M4868 11974 c-3 -11 0 -28 7 -38 12 -16 14 -14 20 14 4 17 4 34 1 37
-3 4 -6 -5 -7 -18 l-1 -24 -7 25 c-7 24 -7 24 -13 4z"/>
</g>
</svg>
